# xmcd
#
# Track frame offsets:
#	150
#	19215
#	40192
#	59040
#	80725
#	100517
#	126195
#	151072
#	168797
#	193665
#	216625
#
# Disc length: 3187 seconds
#
# Revision: 6
# Processed by: cddbd v1.5.2PL0 Copyright (c) Steve Scherf et al.
# Submitted via: EasyCDDAExtractor 15.3.0.1
#
DISCID=940c710b
DTITLE=Whitney Houston - I'm Your Baby Tonight
DYEAR=1990
DGENRE=Pop
TTITLE0=I'm Your Baby Tonight
TTITLE1=My Name Is Not Susan
TTITLE2=All The Man That I Need
TTITLE3=Lover For Life
TTITLE4=Anymore
TTITLE5=Miracle
TTITLE6=I Belong To You
TTITLE7=Who Do You Love
TTITLE8=We Didn't Know (Duet With Stevie Wonder)
TTITLE9=After We Make Love
TTITLE10=I'm Knockin'
EXTD=
EXTT0=
EXTT1=
EXTT2=
EXTT3=
EXTT4=
EXTT5=
EXTT6=
EXTT7=
EXTT8=
EXTT9=
EXTT10=
PLAYORDER=
